<svg xmlns="http://www.w3.org/2000/svg" xmlns:xlink="http://www.w3.org/1999/xlink" viewBox="0 0 36 36" width="36" height="36" fill="none" role="img" class="logo icon-size-15 glyph-only shrink-0 mr-2" aria-labelledby="logo-34-title" aria-hidden="true"><title id="logo-34-title">Proton VPN</title><path fill="url(#logo-34-a)" fill-rule="evenodd" d="M15.247 29.149c1.064 1.913 3.797 2.017 5.005.19l11.265-17.035c1.195-1.806.052-4.228-2.111-4.475L7.263 5.31c-2.36-.269-4.041 2.22-2.893 4.285l.09.16 9.88 6.77-.12 10.77 1.027 1.854Z" clip-rule="evenodd"></path><path fill="url(#logo-34-b)" d="m15.881 27.364 1-1.49 7.594-11.472c.664-1.003.03-2.349-1.17-2.487L4.456 9.752l9.764 17.552a.979.979 0 0 0 1.66.06Z"></path><defs><linearGradient id="logo-34-a" x1="29.32" x2="11.303" y1="29.148" y2="-1.922" gradientUnits="userSpaceOnUse"><stop offset=".066" stop-color="#8EFFEE"></stop><stop offset=".45" stop-color="#C9C7FF"></stop><stop offset="1" stop-color="#7341FF"></stop></linearGradient><linearGradient id="logo-34-b" x1="30.967" x2="5.738" y1="-22.452" y2="31.512" gradientUnits="userSpaceOnUse"><stop offset=".48" stop-color="#6D4AFF"></stop><stop offset=".994" stop-color="#00F0C3"></stop></linearGradient></defs></svg>