<svg xmlns="http://www.w3.org/2000/svg" xmlns:xlink="http://www.w3.org/1999/xlink" viewBox="0 0 36 36" width="36" height="36" fill="none" role="img" class="logo icon-size-15 glyph-only shrink-0 mr-2" aria-labelledby="logo-36-title" aria-hidden="true"><title id="logo-36-title">Proton Wallet</title><path d="M4.00397 27.1283C4.00397 28.76 5.32671 30.0827 6.95838 30.0827L29.0455 30.0827C30.6772 30.0827 31.9999 28.76 31.9999 27.1283V17.6742C31.9999 11.1475 26.709 5.85652 20.1823 5.85652H6.95838C5.3267 5.85652 4.00397 7.17926 4.00397 8.81094V18.1193L9.84007 18.1193C11.9446 18.1193 13.6511 19.9425 13.6511 22.1911C13.6511 24.4396 11.9446 26.2629 9.84007 26.2629H4.00397V27.1283Z" fill="url(#logo-36-a)"></path><path d="M9.54645 20.0377C10.743 20.0377 11.713 21.0077 11.713 22.2042C11.713 23.4008 10.743 24.3708 9.54645 24.3708C8.34989 24.3708 7.37988 23.4008 7.37988 22.2042C7.37988 21.0077 8.34989 20.0377 9.54645 20.0377Z" fill="url(#logo-36-b)"></path><path d="M4.00006 27.1891C4.00006 28.8207 5.3228 30.1435 6.95448 30.1435H26.0911V18.7197C26.0911 13.8247 22.1229 9.85651 17.2279 9.85651H4.00006V18.1193L9.84007 18.1193C11.9446 18.1193 13.6511 19.9425 13.6511 22.1911C13.6511 24.4396 11.9446 26.2629 9.84007 26.2629H4.00006V27.1891Z" fill="#6D4AFF"></path><path d="M4.00006 27.1891C4.00006 28.8207 5.3228 30.1435 6.95448 30.1435H26.0911V18.7197C26.0911 13.8247 22.1229 9.85651 17.2279 9.85651H4.00006V18.1193L9.84007 18.1193C11.9446 18.1193 13.6511 19.9425 13.6511 22.1911C13.6511 24.4396 11.9446 26.2629 9.84007 26.2629H4.00006V27.1891Z" fill="url(#logo-36-c)" fill-opacity="0.9"></path><path d="M9.54645 20.0377C10.743 20.0377 11.713 21.0077 11.713 22.2042C11.713 23.4008 10.743 24.3708 9.54645 24.3708C8.34989 24.3708 7.37988 23.4008 7.37988 22.2042C7.37988 21.0077 8.34989 20.0377 9.54645 20.0377Z" fill="#6D4AFF"></path><path d="M9.54645 20.0377C10.743 20.0377 11.713 21.0077 11.713 22.2042C11.713 23.4008 10.743 24.3708 9.54645 24.3708C8.34989 24.3708 7.37988 23.4008 7.37988 22.2042C7.37988 21.0077 8.34989 20.0377 9.54645 20.0377Z" fill="url(#logo-36-d)" fill-opacity="0.9"></path><path d="M12.6247 24.9708C11.9292 25.7659 10.9389 26.2629 9.84007 26.2629H4.00006V27.1282C4.00006 28.7599 5.3228 30.0827 6.95447 30.0827H8.19005L12.6978 24.9617L12.6247 24.9708Z" fill="#FFBB93"></path><defs><linearGradient id="logo-36-a" x1="0.486198" y1="8.67596" x2="35.1235" y2="22.1686" gradientUnits="userSpaceOnUse"><stop stop-color="#957AFD"></stop><stop offset="1" stop-color="#FFC6C6"></stop></linearGradient><linearGradient id="logo-36-b" x1="0.486198" y1="8.67596" x2="35.1235" y2="22.1686" gradientUnits="userSpaceOnUse"><stop stop-color="#957AFD"></stop><stop offset="1" stop-color="#FFC6C6"></stop></linearGradient><linearGradient id="logo-36-c" x1="24.8427" y1="12.9711" x2="14.0991" y2="34.8323" gradientUnits="userSpaceOnUse"><stop offset="0.149916" stop-color="#FA528E" stop-opacity="0"></stop><stop offset="0.720842" stop-color="#FF8065"></stop><stop offset="1" stop-color="#FFA51F"></stop></linearGradient><linearGradient id="logo-36-d" x1="24.8427" y1="12.9711" x2="14.0991" y2="34.8323" gradientUnits="userSpaceOnUse"><stop offset="0.149916" stop-color="#FA528E" stop-opacity="0"></stop><stop offset="0.720842" stop-color="#FF8065"></stop><stop offset="1" stop-color="#FFA51F"></stop></linearGradient></defs></svg>